<?xml version="1.0" encoding="utf-8"?>
<!-- Generator: Adobe Illustrator 16.0.0, SVG Export Plug-In . SVG Version: 6.00 Build 0)  -->
<!DOCTYPE svg PUBLIC "-//W3C//DTD SVG 1.1//EN" "http://www.w3.org/Graphics/SVG/1.1/DTD/svg11.dtd">
<svg version="1.1" id="Layer_1" focusable="false" xmlns="http://www.w3.org/2000/svg" xmlns:xlink="http://www.w3.org/1999/xlink"
	 x="0px" y="0px" width="612px" height="792px" viewBox="0 0 612 792" enable-background="new 0 0 612 792" xml:space="preserve">
<path fill="#ED1C24" d="M409.207,396l154.796-154.796c18.996-18.996,18.996-49.794,0-68.805l-34.402-34.403
	c-18.995-18.996-49.794-18.996-68.805,0L306,292.792L151.204,137.997c-18.996-18.996-49.794-18.996-68.805,0l-34.403,34.403
	c-18.996,18.996-18.996,49.794,0,68.805L202.792,396L47.997,550.796c-18.996,18.995-18.996,49.794,0,68.805l34.403,34.402
	c18.996,18.996,49.809,18.996,68.805,0L306,499.207l154.796,154.796c18.995,18.996,49.81,18.996,68.805,0l34.402-34.402
	c18.996-18.995,18.996-49.794,0-68.805L409.207,396z"/>
</svg>
